<mxfile host="Electron" agent="Mozilla/5.0 (Macintosh; Intel Mac OS X 10_15_7) AppleWebKit/537.36 (KHTML, like Gecko) draw.io/28.2.5 Chrome/138.0.7204.251 Electron/37.6.1 Safari/537.36" version="28.2.5">
  <diagram name="ANTLR4-TYPE-CAST" id="Mf6i_UcftwDQyC2FPdi5">
    <mxGraphModel dx="1018" dy="657" grid="1" gridSize="10" guides="1" tooltips="1" connect="1" arrows="1" fold="1" page="1" pageScale="1" pageWidth="827" pageHeight="1169" math="0" shadow="0">
      <root>
        <mxCell id="0" />
        <mxCell id="1" parent="0" />
        <mxCell id="29KBUK14QUhSe_ueKBnT-3" value="" style="edgeStyle=orthogonalEdgeStyle;rounded=0;orthogonalLoop=1;jettySize=auto;html=1;" parent="1" source="29KBUK14QUhSe_ueKBnT-1" target="29KBUK14QUhSe_ueKBnT-2" edge="1">
          <mxGeometry relative="1" as="geometry" />
        </mxCell>
        <mxCell id="29KBUK14QUhSe_ueKBnT-1" value="&lt;font style=&quot;font-size: 24px;&quot;&gt;CharStream&lt;/font&gt;" style="rounded=1;whiteSpace=wrap;html=1;fillColor=#d5e8d4;strokeColor=#82b366;" parent="1" vertex="1">
          <mxGeometry x="240" y="160" width="140" height="60" as="geometry" />
        </mxCell>
        <mxCell id="29KBUK14QUhSe_ueKBnT-5" value="" style="edgeStyle=orthogonalEdgeStyle;rounded=0;orthogonalLoop=1;jettySize=auto;html=1;" parent="1" source="29KBUK14QUhSe_ueKBnT-2" target="29KBUK14QUhSe_ueKBnT-4" edge="1">
          <mxGeometry relative="1" as="geometry" />
        </mxCell>
        <mxCell id="29KBUK14QUhSe_ueKBnT-2" value="&lt;font style=&quot;font-size: 24px;&quot;&gt;DorisLexer&lt;/font&gt;" style="rounded=1;whiteSpace=wrap;html=1;fillColor=#d5e8d4;strokeColor=#82b366;" parent="1" vertex="1">
          <mxGeometry x="440" y="160" width="120" height="60" as="geometry" />
        </mxCell>
        <mxCell id="29KBUK14QUhSe_ueKBnT-7" value="" style="edgeStyle=orthogonalEdgeStyle;rounded=0;orthogonalLoop=1;jettySize=auto;html=1;" parent="1" source="29KBUK14QUhSe_ueKBnT-4" target="29KBUK14QUhSe_ueKBnT-6" edge="1">
          <mxGeometry relative="1" as="geometry" />
        </mxCell>
        <mxCell id="29KBUK14QUhSe_ueKBnT-4" value="&lt;font style=&quot;font-size: 24px;&quot;&gt;CommonTokenStream&lt;/font&gt;" style="rounded=1;whiteSpace=wrap;html=1;fillColor=#d5e8d4;strokeColor=#82b366;" parent="1" vertex="1">
          <mxGeometry x="630" y="160" width="240" height="60" as="geometry" />
        </mxCell>
        <mxCell id="29KBUK14QUhSe_ueKBnT-6" value="&lt;font style=&quot;font-size: 24px;&quot;&gt;DorisParser&lt;/font&gt;" style="rounded=1;whiteSpace=wrap;html=1;fillColor=#d5e8d4;strokeColor=#82b366;" parent="1" vertex="1">
          <mxGeometry x="940" y="160" width="140" height="60" as="geometry" />
        </mxCell>
        <mxCell id="29KBUK14QUhSe_ueKBnT-8" value="&lt;font style=&quot;font-size: 24px;&quot;&gt;ANTLR4 数据类型的转换流程&lt;/font&gt;" style="rounded=1;whiteSpace=wrap;html=1;fillColor=#f8cecc;strokeColor=#b85450;align=left;" parent="1" vertex="1">
          <mxGeometry x="90" y="70" width="320" height="50" as="geometry" />
        </mxCell>
        <mxCell id="29KBUK14QUhSe_ueKBnT-10" value="" style="edgeStyle=orthogonalEdgeStyle;rounded=0;orthogonalLoop=1;jettySize=auto;html=1;" parent="1" source="29KBUK14QUhSe_ueKBnT-9" target="29KBUK14QUhSe_ueKBnT-1" edge="1">
          <mxGeometry relative="1" as="geometry" />
        </mxCell>
        <mxCell id="29KBUK14QUhSe_ueKBnT-9" value="&lt;font style=&quot;font-size: 24px;&quot;&gt;String&lt;/font&gt;" style="rounded=1;whiteSpace=wrap;html=1;fillColor=#d5e8d4;strokeColor=#82b366;" parent="1" vertex="1">
          <mxGeometry x="90" y="160" width="90" height="60" as="geometry" />
        </mxCell>
      </root>
    </mxGraphModel>
  </diagram>
</mxfile>
